<?xml version="1.0" encoding="utf-8"?>
<!-- Generator: Adobe Illustrator 21.0.2, SVG Export Plug-In . SVG Version: 6.00 Build 0)  -->
<svg version="1.1" id="Layer_4" xmlns="http://www.w3.org/2000/svg" xmlns:xlink="http://www.w3.org/1999/xlink" x="0px" y="0px"
	 viewBox="0 0 1280 600" style="enable-background:new 0 0 1280 600;" xml:space="preserve">
<style type="text/css">
	.st0{fill:#D7ECF9;}
	.st1{fill:#DDEDF7;}
	.st2{fill:#D7EAF2;}
	.st3{fill:#C5E2EF;}
	.st4{fill:#BBDDED;}
	.st5{fill:#C1DCEA;}
	.st6{fill:#B5D7E8;}
	.st7{fill:#A7CFE5;}
	.st8{fill:#9CC6DF;}
	.st9{fill:#A1C6DE;}
	.st10{fill:#92BBD8;}
	.st11{fill:#7BA0C4;}
	.st12{fill:#7F99BE;}
	.st13{fill:#728BB6;}
	.st14{fill:#5B78AD;}
	.st15{fill:#BADCF3;}
	.st16{fill:#BFDFF4;}
	.st17{fill:#B4DAF1;}
	.st18{fill:#A7D2EF;}
	.st19{fill:#A6D0EB;}
	.st20{fill:#95C7E9;}
	.st21{fill:#91C4E8;}
	.st22{fill:#98C8E5;}
	.st23{fill:#8EC0E1;}
	.st24{fill:#7FB5DD;}
	.st25{fill:#73ACD8;}
	.st26{fill:#7DB1D5;}
	.st27{fill:#78AACF;}
	.st28{fill:#6699C7;}
	.st29{fill:#6A95C0;}
	.st30{fill:#5C86B9;}
	.st31{fill:#6184B5;}
	.st32{fill:#5176B0;}
	.st33{fill:#3F68A9;}
	.st34{fill:#A3CAEB;}
	.st35{fill:#8FBBE3;}
	.st36{fill:#85B2DB;}
	.st37{fill:#8EBEE2;}
	.st38{fill:#80B2DC;}
	.st39{fill:#85BAE1;}
	.st40{fill:#82B9E1;}
	.st41{fill:#6EA8D6;}
	.st42{fill:#68A4D5;}
	.st43{fill:#548FC6;}
	.st44{fill:#4F8CC5;}
	.st45{fill:#5C98CD;}
	.st46{fill:#4985BE;}
	.st47{fill:#5088C0;}
	.st48{fill:#4A7BB6;}
	.st49{fill:#3D6FAE;}
	.st50{fill:#2D61A4;}
	.st51{fill:#28539A;}
	.st52{fill:#89A8D4;}
	.st53{fill:#84A8D4;}
	.st54{fill:#789BCB;}
	.st55{fill:#6F8FC3;}
	.st56{fill:#6E96C6;}
	.st57{fill:#6087BD;}
	.st58{fill:#5D8DC2;}
	.st59{fill:#4B76B2;}
	.st60{fill:#4372B1;}
	.st61{fill:#487BB7;}
	.st62{fill:#376AAB;}
	.st63{fill:#3C72B2;}
	.st64{fill:#376DAE;}
	.st65{fill:#24539A;}
	.st66{fill:#235097;}
	.st67{fill:#153E86;}
	.st68{fill:#16428B;}
	.st69{fill:#1D387D;}
	.st70{fill:#758ABE;}
	.st71{fill:#6778B1;}
	.st72{fill:#6279B2;}
	.st73{fill:#637FB6;}
	.st74{fill:#546DA8;}
	.st75{fill:#5070AC;}
	.st76{fill:#4162A5;}
	.st77{fill:#3F63A6;}
	.st78{fill:#305497;}
	.st79{fill:#2E5A9F;}
	.st80{fill:#224892;}
	.st81{fill:#28539B;}
	.st82{fill:#18418B;}
	.st83{fill:#1B397A;}
	.st84{fill:#1F3268;}
	.st85{fill:#203167;}
	.st86{fill:#1F2B59;}
	.st87{fill:#202E61;}
	.st88{fill:#4E689E;}
	.st89{fill:#6071A5;}
	.st90{fill:#576DA5;}
	.st91{fill:#395A98;}
	.st92{fill:#143F81;}
	.st93{opacity:0.2;fill:#2E2D6B;enable-background:new    ;}
</style>
<title>bg-blue</title>
<polygon class="st0" points="154.7,-0.2 -6,-0.2 -6,2 184.1,31.4 "/>
<polygon class="st1" points="175.4,-0.2 154.7,-0.2 184.1,31.4 "/>
<polygon class="st2" points="209.7,-0.2 175.4,-0.2 184.1,31.4 "/>
<polygon class="st3" points="276.7,36.3 288.4,-0.2 209.7,-0.2 184.1,31.4 "/>
<polygon class="st4" points="460.1,59.5 427.7,-0.2 288.4,-0.2 276.7,36.3 "/>
<polygon class="st5" points="460.5,-0.2 427.7,-0.2 460.1,59.5 "/>
<polygon class="st6" points="507.1,-0.2 460.5,-0.2 460.1,59.5 "/>
<polygon class="st7" points="584.5,-0.2 507.1,-0.2 460.1,59.5 "/>
<polygon class="st8" points="707.1,-0.2 646.6,-0.2 737,32.4 "/>
<polygon class="st9" points="738.1,-0.2 707.1,-0.2 737,32.4 "/>
<polygon class="st10" points="789.1,-0.2 738.1,-0.2 737,32.4 "/>
<polygon class="st11" points="1107.3,-0.2 1096.8,-0.2 1108.5,1.5 "/>
<polygon class="st12" points="1109.7,-0.2 1107.3,-0.2 1108.5,1.5 "/>
<polygon class="st13" points="1136.2,-0.2 1109.7,-0.2 1108.5,1.5 "/>
<polygon class="st14" points="1285,-0.2 1281.7,-0.2 1285,56.7 "/>
<polygon class="st15" points="-6,10.5 -6,183.1 175.3,136.8 "/>
<polygon class="st16" points="184.1,31.4 -6,2 -6,10.5 175.3,136.8 "/>
<polygon class="st17" points="184.1,31.4 175.3,136.8 276.7,36.3 "/>
<polygon class="st18" points="276.7,36.3 175.3,136.8 330.4,158.1 "/>
<polygon class="st19" points="460.1,59.5 276.7,36.3 330.4,158.1 "/>
<polygon class="st20" points="402.5,169.7 460.1,59.5 330.4,158.1 "/>
<polygon class="st21" points="581,107.8 460.1,59.5 402.5,169.7 "/>
<polygon class="st22" points="581,107.8 608,-0.2 584.5,-0.2 460.1,59.5 "/>
<polygon class="st23" points="737,32.4 646.6,-0.2 608,-0.2 581,107.8 "/>
<polygon class="st24" points="737,32.4 581,107.8 744.8,143.6 "/>
<polygon class="st25" points="824.8,127.2 737,32.4 744.8,143.6 "/>
<polygon class="st26" points="824.8,127.2 842.9,-0.2 789.1,-0.2 737,32.4 "/>
<polygon class="st27" points="957.5,-0.2 842.9,-0.2 824.8,127.2 "/>
<polygon class="st28" points="1073.4,92.4 991.5,-0.2 957.5,-0.2 824.8,127.2 "/>
<polygon class="st29" points="1108.5,1.5 1096.8,-0.2 991.5,-0.2 1073.4,92.4 "/>
<polygon class="st30" points="1108.5,1.5 1073.4,92.4 1214.8,110.7 "/>
<polygon class="st31" points="1214.8,110.7 1276.2,-0.2 1136.2,-0.2 1108.5,1.5 "/>
<polygon class="st32" points="1249.9,192.9 1279.8,-0.2 1276.2,-0.2 1214.8,110.7 "/>
<polygon class="st33" points="1285,272.7 1285,56.7 1281.7,-0.2 1279.8,-0.2 1249.9,192.9 "/>
<polygon class="st34" points="-6,183.1 -6,240.7 175.3,136.8 "/>
<polygon class="st35" points="175.3,136.8 -6,240.7 -6,241.8 183.1,342.8 "/>
<polygon class="st36" points="175.3,136.8 183.1,342.8 235.8,326.3 "/>
<polygon class="st37" points="330.4,158.1 175.3,136.8 235.8,326.3 "/>
<polygon class="st38" points="330.4,158.1 235.8,326.3 410.3,258.7 "/>
<polygon class="st39" points="402.5,169.7 330.4,158.1 410.3,258.7 "/>
<polygon class="st40" points="410.3,258.7 581,107.8 402.5,169.7 "/>
<polygon class="st41" points="594.6,336 581,107.8 410.3,258.7 "/>
<polygon class="st42" points="744.8,143.6 581,107.8 594.6,336 "/>
<polygon class="st43" points="594.6,336 722.4,348.6 744.8,143.6 "/>
<polygon class="st44" points="744.8,143.6 722.4,348.6 818.9,270.3 "/>
<polygon class="st45" points="818.9,270.3 824.8,127.2 744.8,143.6 "/>
<polygon class="st46" points="1064.7,253.8 824.8,127.2 818.9,270.3 "/>
<polygon class="st47" points="1073.4,92.4 824.8,127.2 1064.7,253.8 "/>
<polygon class="st48" points="1214.8,110.7 1073.4,92.4 1064.7,253.8 "/>
<polygon class="st49" points="1249.9,192.9 1214.8,110.7 1064.7,253.8 "/>
<polygon class="st50" points="1147.5,337.9 1249.9,192.9 1064.7,253.8 "/>
<polygon class="st51" points="1147.5,337.9 1285,309.1 1285,272.7 1249.9,192.9 "/>
<polygon class="st52" points="-6,242.2 -6,395.3 161.7,390.1 "/>
<polygon class="st53" points="183.1,342.8 -6,241.8 -6,242.2 161.7,390.1 "/>
<polygon class="st54" points="183.1,342.8 161.7,390.1 235.8,326.3 "/>
<polygon class="st55" points="235.8,326.3 161.7,390.1 313.8,478.1 "/>
<polygon class="st56" points="235.8,326.3 313.8,478.1 410.3,258.7 "/>
<polygon class="st57" points="313.8,478.1 489.3,457.8 410.3,258.7 "/>
<polygon class="st58" points="489.3,457.8 594.6,336 410.3,258.7 "/>
<polygon class="st59" points="489.3,457.8 612.2,482 594.6,336 "/>
<polygon class="st60" points="612.2,482 714.6,413.3 594.6,336 "/>
<polygon class="st61" points="594.6,336 714.6,413.3 722.4,348.6 "/>
<polygon class="st62" points="722.4,348.6 714.6,413.3 896.9,403.7 "/>
<polygon class="st63" points="722.4,348.6 896.9,403.7 818.9,270.3 "/>
<polygon class="st64" points="896.9,403.7 1064.7,253.8 818.9,270.3 "/>
<polygon class="st65" points="896.9,403.7 1052.9,492.6 1064.7,253.8 "/>
<polygon class="st66" points="1064.7,253.8 1052.9,492.6 1147.5,337.9 "/>
<polygon class="st67" points="1147.5,337.9 1052.9,492.6 1167,472.3 "/>
<polygon class="st68" points="1167,472.3 1285,324.4 1285,309.1 1147.5,337.9 "/>
<polygon class="st69" points="1285,445.2 1285,324.4 1167,472.3 "/>
<polygon class="st70" points="-6,395.3 -6,599.8 -4,599.8 161.7,390.1 "/>
<polygon class="st71" points="161.7,390.1 -4,599.8 17.6,599.8 179.2,568 "/>
<polygon class="st72" points="161.7,390.1 179.2,568 275.8,543.9 "/>
<polygon class="st73" points="313.8,478.1 161.7,390.1 275.8,543.9 "/>
<polygon class="st74" points="275.8,543.9 419.1,557.4 313.8,478.1 "/>
<polygon class="st75" points="313.8,478.1 419.1,557.4 489.3,457.8 "/>
<polygon class="st76" points="419.1,557.4 603.4,571.9 489.3,457.8 "/>
<polygon class="st77" points="603.4,571.9 612.2,482 489.3,457.8 "/>
<polygon class="st78" points="603.4,571.9 745.8,599.8 750.3,599.8 612.2,482 "/>
<polygon class="st79" points="612.2,482 750.3,599.8 751.4,599.8 714.6,413.3 "/>
<polygon class="st80" points="714.6,413.3 751.4,599.8 757.6,599.8 898.9,572.9 "/>
<polygon class="st81" points="714.6,413.3 898.9,572.9 896.9,403.7 "/>
<polygon class="st82" points="898.9,572.9 1052.9,492.6 896.9,403.7 "/>
<polygon class="st83" points="898.9,572.9 964,599.8 970.7,599.8 1052.9,492.6 "/>
<polygon class="st84" points="1052.9,492.6 970.7,599.8 1177.6,599.8 "/>
<polygon class="st85" points="1052.9,492.6 1177.6,599.8 1204.7,599.8 1167,472.3 "/>
<polygon class="st86" points="1204.7,599.8 1262.4,599.8 1167,472.3 "/>
<polygon class="st87" points="1262.4,599.8 1285,599.8 1285,445.2 1167,472.3 "/>
<polygon class="st88" points="37.2,599.8 742.9,599.8 419.1,557.4 "/>
<polygon class="st89" points="179.2,568 17.6,599.8 37.2,599.8 419.1,557.4 "/>
<polygon class="st90" points="179.2,568 419.1,557.4 275.8,543.9 "/>
<polygon class="st91" points="419.1,557.4 742.9,599.8 745.8,599.8 603.4,571.9 "/>
<polygon class="st92" points="757.6,599.8 964,599.8 898.9,572.9 "/>
<rect x="-6" y="-0.2" class="st93" width="1291" height="600"/>
</svg>
