<svg id="Layer_4" data-name="Layer 4" xmlns="http://www.w3.org/2000/svg" viewBox="0 0 1280 600"><defs><style>.cls-1{fill:#d7ecf9;}.cls-2{fill:#ddedf7;}.cls-3{fill:#d7eaf2;}.cls-4{fill:#c5e2ef;}.cls-5{fill:#bbdded;}.cls-6{fill:#c1dcea;}.cls-7{fill:#b5d7e8;}.cls-8{fill:#a7cfe5;}.cls-9{fill:#9cc6df;}.cls-10{fill:#a1c6de;}.cls-11{fill:#92bbd8;}.cls-12{fill:#7ba0c4;}.cls-13{fill:#7f99be;}.cls-14{fill:#728bb6;}.cls-15{fill:#5b78ad;}.cls-16{fill:#badcf3;}.cls-17{fill:#bfdff4;}.cls-18{fill:#b4daf1;}.cls-19{fill:#a7d2ef;}.cls-20{fill:#a6d0eb;}.cls-21{fill:#95c7e9;}.cls-22{fill:#91c4e8;}.cls-23{fill:#98c8e5;}.cls-24{fill:#8ec0e1;}.cls-25{fill:#7fb5dd;}.cls-26{fill:#73acd8;}.cls-27{fill:#7db1d5;}.cls-28{fill:#78aacf;}.cls-29{fill:#6699c7;}.cls-30{fill:#6a95c0;}.cls-31{fill:#5c86b9;}.cls-32{fill:#6184b5;}.cls-33{fill:#5176b0;}.cls-34{fill:#3f68a9;}.cls-35{fill:#a3caeb;}.cls-36{fill:#8fbbe3;}.cls-37{fill:#85b2db;}.cls-38{fill:#8ebee2;}.cls-39{fill:#80b2dc;}.cls-40{fill:#85bae1;}.cls-41{fill:#82b9e1;}.cls-42{fill:#6ea8d6;}.cls-43{fill:#68a4d5;}.cls-44{fill:#548fc6;}.cls-45{fill:#4f8cc5;}.cls-46{fill:#5c98cd;}.cls-47{fill:#4985be;}.cls-48{fill:#5088c0;}.cls-49{fill:#4a7bb6;}.cls-50{fill:#3d6fae;}.cls-51{fill:#2d61a4;}.cls-52{fill:#28539a;}.cls-53{fill:#89a8d4;}.cls-54{fill:#84a8d4;}.cls-55{fill:#789bcb;}.cls-56{fill:#6f8fc3;}.cls-57{fill:#6e96c6;}.cls-58{fill:#6087bd;}.cls-59{fill:#5d8dc2;}.cls-60{fill:#4b76b2;}.cls-61{fill:#4372b1;}.cls-62{fill:#487bb7;}.cls-63{fill:#376aab;}.cls-64{fill:#3c72b2;}.cls-65{fill:#376dae;}.cls-66{fill:#24539a;}.cls-67{fill:#235097;}.cls-68{fill:#153e86;}.cls-69{fill:#16428b;}.cls-70{fill:#1d387d;}.cls-71{fill:#758abe;}.cls-72{fill:#6778b1;}.cls-73{fill:#6279b2;}.cls-74{fill:#637fb6;}.cls-75{fill:#546da8;}.cls-76{fill:#5070ac;}.cls-77{fill:#4162a5;}.cls-78{fill:#3f63a6;}.cls-79{fill:#305497;}.cls-80{fill:#2e5a9f;}.cls-81{fill:#224892;}.cls-82{fill:#28539b;}.cls-83{fill:#18418b;}.cls-84{fill:#1b397a;}.cls-85{fill:#1f3268;}.cls-86{fill:#203167;}.cls-87{fill:#1f2b59;}.cls-88{fill:#202e61;}.cls-89{fill:#4e689e;}.cls-90{fill:#6071a5;}.cls-91{fill:#576da5;}.cls-92{fill:#395a98;}.cls-93{fill:#143f81;}.cls-94{fill:#2e2d6b;opacity:0.2;}</style></defs><title>bg-blue</title><polygon class="cls-1" points="159.37 -0.23 0 -0.23 0 1.98 188.47 31.45 159.37 -0.23"/><polygon class="cls-2" points="179.82 -0.23 159.37 -0.23 188.47 31.45 179.82 -0.23"/><polygon class="cls-3" points="213.82 -0.23 179.82 -0.23 188.47 31.45 213.82 -0.23"/><polygon class="cls-4" points="280.32 36.28 291.9 -0.23 213.82 -0.23 188.47 31.45 280.32 36.28"/><polygon class="cls-5" points="462.09 59.49 430.01 -0.23 291.9 -0.23 280.32 36.28 462.09 59.49"/><polygon class="cls-6" points="462.57 -0.23 430.01 -0.23 462.09 59.49 462.57 -0.23"/><polygon class="cls-7" points="508.75 -0.23 462.57 -0.23 462.09 59.49 508.75 -0.23"/><polygon class="cls-8" points="585.51 -0.23 508.75 -0.23 462.09 59.49 585.51 -0.23"/><polygon class="cls-9" points="706.98 -0.23 647.07 -0.23 736.67 32.42 706.98 -0.23"/><polygon class="cls-10" points="737.75 -0.23 706.98 -0.23 736.67 32.42 737.75 -0.23"/><polygon class="cls-11" points="788.36 -0.23 737.75 -0.23 736.67 32.42 788.36 -0.23"/><polygon class="cls-12" points="1103.79 -0.23 1093.43 -0.23 1105.03 1.48 1103.79 -0.23"/><polygon class="cls-13" points="1106.17 -0.23 1103.79 -0.23 1105.03 1.48 1106.17 -0.23"/><polygon class="cls-14" points="1132.51 -0.23 1106.17 -0.23 1105.03 1.48 1132.51 -0.23"/><polygon class="cls-15" points="1280 -0.23 1276.68 -0.23 1280 56.69 1280 -0.23"/><polygon class="cls-16" points="0 10.47 0 183.09 179.77 136.84 0 10.47"/><polygon class="cls-17" points="188.47 31.45 0 1.98 0 10.47 179.77 136.84 188.47 31.45"/><polygon class="cls-18" points="188.47 31.45 179.77 136.84 280.32 36.28 188.47 31.45"/><polygon class="cls-19" points="280.32 36.28 179.77 136.84 333.5 158.11 280.32 36.28"/><polygon class="cls-20" points="462.09 59.49 280.32 36.28 333.5 158.11 462.09 59.49"/><polygon class="cls-21" points="405.04 169.71 462.09 59.49 333.5 158.11 405.04 169.71"/><polygon class="cls-22" points="581.98 107.83 462.09 59.49 405.04 169.71 581.98 107.83"/><polygon class="cls-23" points="581.98 107.83 608.78 -0.23 585.51 -0.23 462.09 59.49 581.98 107.83"/><polygon class="cls-24" points="736.67 32.42 647.07 -0.23 608.78 -0.23 581.98 107.83 736.67 32.42"/><polygon class="cls-25" points="736.67 32.42 581.98 107.83 744.4 143.61 736.67 32.42"/><polygon class="cls-26" points="823.68 127.17 736.67 32.42 744.4 143.61 823.68 127.17"/><polygon class="cls-27" points="823.68 127.17 841.67 -0.23 788.36 -0.23 736.67 32.42 823.68 127.17"/><polygon class="cls-28" points="955.33 -0.23 841.67 -0.23 823.68 127.17 955.33 -0.23"/><polygon class="cls-29" points="1070.23 92.36 989.01 -0.23 955.33 -0.23 823.68 127.17 1070.23 92.36"/><polygon class="cls-30" points="1105.03 1.48 1093.43 -0.23 989.01 -0.23 1070.23 92.36 1105.03 1.48"/><polygon class="cls-31" points="1105.03 1.48 1070.23 92.36 1210.42 110.73 1105.03 1.48"/><polygon class="cls-32" points="1210.42 110.73 1271.27 -0.23 1132.51 -0.23 1105.03 1.48 1210.42 110.73"/><polygon class="cls-33" points="1245.22 192.91 1274.8 -0.23 1271.27 -0.23 1210.42 110.73 1245.22 192.91"/><polygon class="cls-34" points="1280 272.7 1280 56.69 1276.68 -0.23 1274.8 -0.23 1245.22 192.91 1280 272.7"/><polygon class="cls-35" points="0 183.09 0 240.67 179.77 136.84 0 183.09"/><polygon class="cls-36" points="179.77 136.84 0 240.67 0 241.81 187.51 342.78 179.77 136.84"/><polygon class="cls-37" points="179.77 136.84 187.51 342.78 239.72 326.34 179.77 136.84"/><polygon class="cls-38" points="333.5 158.11 179.77 136.84 239.72 326.34 333.5 158.11"/><polygon class="cls-39" points="333.5 158.11 239.72 326.34 412.78 258.66 333.5 158.11"/><polygon class="cls-40" points="405.04 169.71 333.5 158.11 412.78 258.66 405.04 169.71"/><polygon class="cls-41" points="412.78 258.66 581.98 107.83 405.04 169.71 412.78 258.66"/><polygon class="cls-42" points="595.51 336 581.98 107.83 412.78 258.66 595.51 336"/><polygon class="cls-43" points="744.4 143.61 581.98 107.83 595.51 336 744.4 143.61"/><polygon class="cls-44" points="595.51 336 722.17 348.57 744.4 143.61 595.51 336"/><polygon class="cls-45" points="744.4 143.61 722.17 348.57 817.88 270.26 744.4 143.61"/><polygon class="cls-46" points="817.88 270.26 823.68 127.17 744.4 143.61 817.88 270.26"/><polygon class="cls-47" points="1061.53 253.82 823.68 127.17 817.88 270.26 1061.53 253.82"/><polygon class="cls-48" points="1070.23 92.36 823.68 127.17 1061.53 253.82 1070.23 92.36"/><polygon class="cls-49" points="1210.42 110.73 1070.23 92.36 1061.53 253.82 1210.42 110.73"/><polygon class="cls-50" points="1245.22 192.91 1210.42 110.73 1061.53 253.82 1245.22 192.91"/><polygon class="cls-51" points="1143.71 337.94 1245.22 192.91 1061.53 253.82 1143.71 337.94"/><polygon class="cls-52" points="1143.71 337.94 1280 309.11 1280 272.7 1245.22 192.91 1143.71 337.94"/><polygon class="cls-53" points="0 242.17 0 395.32 166.24 390.14 0 242.17"/><polygon class="cls-54" points="187.51 342.78 0 241.81 0 242.17 166.24 390.14 187.51 342.78"/><polygon class="cls-55" points="187.51 342.78 166.24 390.14 239.72 326.34 187.51 342.78"/><polygon class="cls-56" points="239.72 326.34 166.24 390.14 317.06 478.13 239.72 326.34"/><polygon class="cls-57" points="239.72 326.34 317.06 478.13 412.78 258.66 239.72 326.34"/><polygon class="cls-58" points="317.06 478.13 491.09 457.83 412.78 258.66 317.06 478.13"/><polygon class="cls-59" points="491.09 457.83 595.51 336 412.78 258.66 491.09 457.83"/><polygon class="cls-60" points="491.09 457.83 612.92 482 595.51 336 491.09 457.83"/><polygon class="cls-61" points="612.92 482 714.43 413.35 595.51 336 612.92 482"/><polygon class="cls-62" points="595.51 336 714.43 413.35 722.17 348.57 595.51 336"/><polygon class="cls-63" points="722.17 348.57 714.43 413.35 895.23 403.68 722.17 348.57"/><polygon class="cls-64" points="722.17 348.57 895.23 403.68 817.88 270.26 722.17 348.57"/><polygon class="cls-65" points="895.23 403.68 1061.53 253.82 817.88 270.26 895.23 403.68"/><polygon class="cls-66" points="895.23 403.68 1049.92 492.63 1061.53 253.82 895.23 403.68"/><polygon class="cls-67" points="1061.53 253.82 1049.92 492.63 1143.71 337.94 1061.53 253.82"/><polygon class="cls-68" points="1143.71 337.94 1049.92 492.63 1163.04 472.33 1143.71 337.94"/><polygon class="cls-69" points="1163.04 472.33 1280 324.41 1280 309.11 1143.71 337.94 1163.04 472.33"/><polygon class="cls-70" points="1280 445.24 1280 324.41 1163.04 472.33 1280 445.24"/><polygon class="cls-71" points="0 395.32 0 599.77 1.94 599.77 166.24 390.14 0 395.32"/><polygon class="cls-72" points="166.24 390.14 1.94 599.77 23.36 599.77 183.64 568.05 166.24 390.14"/><polygon class="cls-73" points="166.24 390.14 183.64 568.05 279.36 543.88 166.24 390.14"/><polygon class="cls-74" points="317.06 478.13 166.24 390.14 279.36 543.88 317.06 478.13"/><polygon class="cls-75" points="279.36 543.88 421.48 557.41 317.06 478.13 279.36 543.88"/><polygon class="cls-76" points="317.06 478.13 421.48 557.41 491.09 457.83 317.06 478.13"/><polygon class="cls-77" points="421.48 557.41 604.21 571.91 491.09 457.83 421.48 557.41"/><polygon class="cls-78" points="604.21 571.91 612.92 482 491.09 457.83 604.21 571.91"/><polygon class="cls-79" points="604.21 571.91 745.38 599.77 749.84 599.77 612.92 482 604.21 571.91"/><polygon class="cls-80" points="612.92 482 749.84 599.77 750.95 599.77 714.43 413.35 612.92 482"/><polygon class="cls-81" points="714.43 413.35 750.95 599.77 757.12 599.77 897.16 572.88 714.43 413.35"/><polygon class="cls-82" points="714.43 413.35 897.16 572.88 895.23 403.68 714.43 413.35"/><polygon class="cls-83" points="897.16 572.88 1049.92 492.63 895.23 403.68 897.16 572.88"/><polygon class="cls-84" points="897.16 572.88 961.71 599.77 968.38 599.77 1049.92 492.63 897.16 572.88"/><polygon class="cls-85" points="1049.92 492.63 968.38 599.77 1173.54 599.77 1049.92 492.63"/><polygon class="cls-86" points="1049.92 492.63 1173.54 599.77 1200.34 599.77 1163.04 472.33 1049.92 492.63"/><polygon class="cls-87" points="1200.34 599.77 1257.63 599.77 1163.04 472.33 1200.34 599.77"/><polygon class="cls-88" points="1257.63 599.77 1280 599.77 1280 445.24 1163.04 472.33 1257.63 599.77"/><polygon class="cls-89" points="42.87 599.77 742.51 599.77 421.48 557.41 42.87 599.77"/><polygon class="cls-90" points="183.64 568.05 23.36 599.77 42.87 599.77 421.48 557.41 183.64 568.05"/><polygon class="cls-91" points="183.64 568.05 421.48 557.41 279.36 543.88 183.64 568.05"/><polygon class="cls-92" points="421.48 557.41 742.51 599.77 745.38 599.77 604.21 571.91 421.48 557.41"/><polygon class="cls-93" points="757.12 599.77 961.71 599.77 897.16 572.88 757.12 599.77"/><rect class="cls-94" y="-0.23" width="1280" height="600" transform="translate(1280 599.55) rotate(-180)"/></svg>