<?xml version="1.0" encoding="utf-8"?>
<!-- Generator: Adobe Illustrator 21.0.2, SVG Export Plug-In . SVG Version: 6.00 Build 0)  -->
<svg version="1.1" id="Layer_3" xmlns="http://www.w3.org/2000/svg" xmlns:xlink="http://www.w3.org/1999/xlink" x="0px" y="0px"
	 viewBox="0 0 1280 360" style="enable-background:new 0 0 1280 360;" xml:space="preserve">
<style type="text/css">
	.st0{fill:#CAE6DF;}
	.st1{fill:#B5DDD6;}
	.st2{fill:#BDE1DD;}
	.st3{fill:#B1DBD3;}
	.st4{fill:#9FD2C3;}
	.st5{fill:#8AC8AB;}
	.st6{fill:#86C5A7;}
	.st7{fill:#81BF9D;}
	.st8{fill:#75B68E;}
	.st9{fill:#6CAC7F;}
	.st10{fill:#619B6B;}
	.st11{fill:#61956C;}
	.st12{fill:#4E8056;}
	.st13{fill:#A8D1B5;}
	.st14{fill:#B2DAC6;}
	.st15{fill:#ACD8C4;}
	.st16{fill:#9FD1B8;}
	.st17{fill:#A2D3BF;}
	.st18{fill:#94CBB1;}
	.st19{fill:#93CCB1;}
	.st20{fill:#83C09F;}
	.st21{fill:#79B990;}
	.st22{fill:#80C19E;}
	.st23{fill:#79B992;}
	.st24{fill:#64A574;}
	.st25{fill:#60A16E;}
	.st26{fill:#66A675;}
	.st27{fill:#55945A;}
	.st28{fill:#59965D;}
	.st29{fill:#569157;}
	.st30{fill:#4C8446;}
	.st31{fill:#43793D;}
	.st32{fill:#4D804F;}
	.st33{fill:#37672F;}
	.st34{fill:#8FB789;}
	.st35{fill:#8EBC93;}
	.st36{fill:#83B284;}
	.st37{fill:#8ABB96;}
	.st38{fill:#79AD80;}
	.st39{fill:#7EB690;}
	.st40{fill:#74AE82;}
	.st41{fill:#639C69;}
	.st42{fill:#5F9961;}
	.st43{fill:#62A270;}
	.st44{fill:#559153;}
	.st45{fill:#539154;}
	.st46{fill:#477F3C;}
	.st47{fill:#4C8746;}
	.st48{fill:#417E35;}
	.st49{fill:#488441;}
	.st50{fill:#3B7328;}
	.st51{fill:#3D7530;}
	.st52{fill:#376A26;}
	.st53{fill:#2B571A;}
	.st54{fill:#88A783;}
	.st55{fill:#809E80;}
	.st56{fill:#7EA27E;}
	.st57{fill:#749579;}
	.st58{fill:#6C9075;}
	.st59{fill:#6D9875;}
	.st60{fill:#61906A;}
	.st61{fill:#5B8466;}
	.st62{fill:#53805C;}
	.st63{fill:#55895A;}
	.st64{fill:#4F8451;}
	.st65{fill:#457845;}
	.st66{fill:#3F7238;}
	.st67{fill:#36622D;}
	.st68{fill:#2F5C25;}
	.st69{fill:#366825;}
	.st70{fill:#32641E;}
	.st71{fill:#2A5519;}
	.st72{fill:#244A15;}
	.st73{fill:#234915;}
	.st74{fill:#77917C;}
	.st75{fill:#61826D;}
	.st76{fill:#3D6741;}
	.st77{fill:#4A7852;}
	.st78{fill:#274E1A;}
	.st79{opacity:0.2;fill:#57AA68;enable-background:new    ;}
</style>
<title>bg-green</title>
<polygon class="st0" points="1281.5,360.1 1281.5,355.3 1233.6,360.2 "/>
<polygon class="st1" points="934.9,360.4 1046.3,360.3 917.7,325.6 "/>
<polygon class="st2" points="918.2,360.4 934.9,360.4 917.7,325.6 "/>
<polygon class="st3" points="882.3,360.4 918.2,360.4 917.7,325.6 "/>
<polygon class="st4" points="724.7,360.5 882.3,360.4 917.7,325.6 "/>
<polygon class="st5" points="522.8,360.6 531.3,360.6 516.1,356 "/>
<polygon class="st6" points="515.3,360.6 522.8,360.6 516.1,356 "/>
<polygon class="st7" points="512.1,360.6 515.3,360.6 516.1,356 "/>
<polygon class="st8" points="366.2,317.3 384.3,360.7 512.1,360.6 516.1,356 "/>
<polygon class="st9" points="250.8,360.8 384.3,360.7 366.2,317.3 "/>
<polygon class="st10" points="132.3,360.8 183.8,360.8 135,342.4 "/>
<polygon class="st11" points="95.3,360.9 132.3,360.8 135,342.4 "/>
<polygon class="st12" points="-0.6,355.7 -0.6,360.9 0.2,360.9 "/>
<polygon class="st13" points="1281.5,348.2 1281.4,194 1157.4,216.9 "/>
<polygon class="st14" points="1176.5,360.2 1233.6,360.2 1281.5,355.3 1281.5,348.2 1157.4,216.9 "/>
<polygon class="st15" points="1081.4,360.3 1176.5,360.2 1157.4,216.9 "/>
<polygon class="st16" points="1026.4,259.2 1073.2,360.3 1081.4,360.3 1157.4,216.9 "/>
<polygon class="st17" points="917.7,325.6 1046.3,360.3 1073.2,360.3 1026.4,259.2 "/>
<polygon class="st18" points="917.7,325.6 1026.4,259.2 877.4,261.9 "/>
<polygon class="st19" points="877.4,261.9 722.5,360.5 724.7,360.5 917.7,325.6 "/>
<polygon class="st20" points="795.2,212 721.9,360.5 722.5,360.5 877.4,261.9 "/>
<polygon class="st21" points="614.5,209.5 721.2,360.5 721.9,360.5 795.2,212 "/>
<polygon class="st22" points="629.5,360.5 721.2,360.5 614.5,209.5 "/>
<polygon class="st23" points="516.1,356 531.3,360.6 629.5,360.5 614.5,209.5 "/>
<polygon class="st24" points="516.1,356 614.5,209.5 524.6,178.6 "/>
<polygon class="st25" points="412.4,254.4 516.1,356 524.6,178.6 "/>
<polygon class="st26" points="366.2,317.3 516.1,356 412.4,254.4 "/>
<polygon class="st27" points="224.9,253.7 366.2,317.3 412.4,254.4 "/>
<polygon class="st28" points="224.9,253.7 218.1,360.8 250.8,360.8 366.2,317.3 "/>
<polygon class="st29" points="135,342.4 183.8,360.8 218.1,360.8 224.9,253.7 "/>
<polygon class="st30" points="154.7,232.2 135,342.4 224.9,253.7 "/>
<polygon class="st31" points="154.7,232.2 -0.7,186.1 -0.7,194.1 135,342.4 "/>
<polygon class="st32" points="95.3,360.9 135,342.4 -0.7,194.1 -0.6,310.3 3.4,360.9 "/>
<polygon class="st33" points="3.4,360.9 -0.6,310.3 -0.6,355.7 0.2,360.9 "/>
<polygon class="st34" points="1281.4,143.2 1281.4,99.6 1207.9,86.8 "/>
<polygon class="st35" points="1157.4,216.9 1281.4,194 1281.4,143.2 1207.9,86.8 "/>
<polygon class="st36" points="1207.9,86.8 1063.2,87.8 1157.4,216.9 "/>
<polygon class="st37" points="1157.4,216.9 1063.2,87.8 1026.4,259.2 "/>
<polygon class="st38" points="1026.4,259.2 1063.2,87.8 891,62.1 "/>
<polygon class="st39" points="877.4,261.9 1026.4,259.2 891,62.1 "/>
<polygon class="st40" points="795.2,212 877.4,261.9 891,62.1 "/>
<polygon class="st41" points="891,62.1 742.9,50.9 795.2,212 "/>
<polygon class="st42" points="795.2,212 742.9,50.9 694.1,91.5 "/>
<polygon class="st43" points="614.5,209.5 795.2,212 694.1,91.5 "/>
<polygon class="st44" points="523.7,76 614.5,209.5 694.1,91.5 "/>
<polygon class="st45" points="524.6,178.6 614.5,209.5 523.7,76 "/>
<polygon class="st46" points="523.7,76 378.9,64.1 524.6,178.6 "/>
<polygon class="st47" points="524.6,178.6 378.9,64.1 412.4,254.4 "/>
<polygon class="st48" points="412.4,254.4 378.9,64.1 289.1,125.3 "/>
<polygon class="st49" points="289.1,125.3 224.9,253.7 412.4,254.4 "/>
<polygon class="st50" points="289.1,125.3 151.2,111.6 224.9,253.7 "/>
<polygon class="st51" points="151.2,111.6 154.7,232.2 224.9,253.7 "/>
<polygon class="st52" points="151.2,111.6 -0.7,178.8 -0.7,186.1 154.7,232.2 "/>
<polygon class="st53" points="-0.8,67.6 -0.7,178.8 151.2,111.6 "/>
<polygon class="st54" points="1281.4,99.6 1281.3,-2.5 1261.4,-2.5 1207.9,86.8 "/>
<polygon class="st55" points="1207.9,86.8 1261.4,-2.5 1189.7,-2.5 1138.5,9.4 "/>
<polygon class="st56" points="1138.5,9.4 1063.2,87.8 1207.9,86.8 "/>
<polygon class="st57" points="1138.5,9.4 1117.2,-2.4 1024.1,-2.4 1063.2,87.8 "/>
<polygon class="st58" points="1063.2,87.8 1024.1,-2.4 905.9,-2.3 896.1,5.2 "/>
<polygon class="st59" points="1063.2,87.8 896.1,5.2 891,62.1 "/>
<polygon class="st60" points="896.1,5.2 742.9,50.9 891,62.1 "/>
<polygon class="st61" points="896.1,5.2 886.8,-2.3 767.1,-2.2 742.9,50.9 "/>
<polygon class="st62" points="742.9,50.9 767.1,-2.2 680.6,-2.2 647.8,17.4 "/>
<polygon class="st63" points="742.9,50.9 647.8,17.4 694.1,91.5 "/>
<polygon class="st64" points="694.1,91.5 647.8,17.4 523.7,76 "/>
<polygon class="st65" points="647.8,17.4 488.5,5.4 523.7,76 "/>
<polygon class="st66" points="488.5,5.4 378.9,64.1 523.7,76 "/>
<polygon class="st67" points="488.5,5.4 477.4,-2.1 369.6,-2 378.9,64.1 "/>
<polygon class="st68" points="378.9,64.1 369.6,-2 293.5,-2 288.1,4.7 "/>
<polygon class="st69" points="378.9,64.1 288.1,4.7 289.1,125.3 "/>
<polygon class="st70" points="288.1,4.7 151.2,111.6 289.1,125.3 "/>
<polygon class="st71" points="288.1,4.7 264.4,-1.9 173,-1.9 151.2,111.6 "/>
<polygon class="st72" points="173,-1.9 56.8,-1.8 151.2,111.6 "/>
<polygon class="st73" points="56.8,-1.8 -0.8,-1.8 -0.8,67.6 151.2,111.6 "/>
<polygon class="st74" points="1189.7,-2.5 1117.2,-2.4 1138.5,9.4 "/>
<polygon class="st75" points="905.9,-2.3 886.8,-2.3 896.1,5.2 "/>
<polygon class="st76" points="518.3,-2.1 477.4,-2.1 488.5,5.4 "/>
<polygon class="st77" points="647.8,17.4 680.6,-2.2 518.3,-2.1 488.5,5.4 "/>
<polygon class="st78" points="293.5,-2 264.4,-1.9 288.1,4.7 "/>
<rect x="-0.7" y="-2.2" class="st79" width="1282.1" height="362.7"/>
</svg>
