<svg id="Layer_3" data-name="Layer 3" xmlns="http://www.w3.org/2000/svg" viewBox="0 0 1280 360"><defs><style>.cls-1{fill:#cae6df;}.cls-2{fill:#b5ddd6;}.cls-3{fill:#bde1dd;}.cls-4{fill:#b1dbd3;}.cls-5{fill:#9fd2c3;}.cls-6{fill:#8ac8ab;}.cls-7{fill:#86c5a7;}.cls-8{fill:#81bf9d;}.cls-9{fill:#75b68e;}.cls-10{fill:#6cac7f;}.cls-11{fill:#619b6b;}.cls-12{fill:#61956c;}.cls-13{fill:#4e8056;}.cls-14{fill:#a8d1b5;}.cls-15{fill:#b2dac6;}.cls-16{fill:#acd8c4;}.cls-17{fill:#9fd1b8;}.cls-18{fill:#a2d3bf;}.cls-19{fill:#94cbb1;}.cls-20{fill:#93ccb1;}.cls-21{fill:#83c09f;}.cls-22{fill:#79b990;}.cls-23{fill:#80c19e;}.cls-24{fill:#79b992;}.cls-25{fill:#64a574;}.cls-26{fill:#60a16e;}.cls-27{fill:#66a675;}.cls-28{fill:#55945a;}.cls-29{fill:#59965d;}.cls-30{fill:#569157;}.cls-31{fill:#4c8446;}.cls-32{fill:#43793d;}.cls-33{fill:#4d804f;}.cls-34{fill:#37672f;}.cls-35{fill:#8fb789;}.cls-36{fill:#8ebc93;}.cls-37{fill:#83b284;}.cls-38{fill:#8abb96;}.cls-39{fill:#79ad80;}.cls-40{fill:#7eb690;}.cls-41{fill:#74ae82;}.cls-42{fill:#639c69;}.cls-43{fill:#5f9961;}.cls-44{fill:#62a270;}.cls-45{fill:#559153;}.cls-46{fill:#539154;}.cls-47{fill:#477f3c;}.cls-48{fill:#4c8746;}.cls-49{fill:#417e35;}.cls-50{fill:#488441;}.cls-51{fill:#3b7328;}.cls-52{fill:#3d7530;}.cls-53{fill:#376a26;}.cls-54{fill:#2b571a;}.cls-55{fill:#88a783;}.cls-56{fill:#809e80;}.cls-57{fill:#7ea27e;}.cls-58{fill:#749579;}.cls-59{fill:#6c9075;}.cls-60{fill:#6d9875;}.cls-61{fill:#61906a;}.cls-62{fill:#5b8466;}.cls-63{fill:#53805c;}.cls-64{fill:#55895a;}.cls-65{fill:#4f8451;}.cls-66{fill:#457845;}.cls-67{fill:#3f7238;}.cls-68{fill:#36622d;}.cls-69{fill:#2f5c25;}.cls-70{fill:#366825;}.cls-71{fill:#32641e;}.cls-72{fill:#2a5519;}.cls-73{fill:#244a15;}.cls-74{fill:#234915;}.cls-75{fill:#77917c;}.cls-76{fill:#61826d;}.cls-77{fill:#3d6741;}.cls-78{fill:#4a7852;}.cls-79{fill:#274e1a;}.cls-80{fill:#57aa68;opacity:0.2;}</style></defs><title>bg-green</title><polygon class="cls-1" points="1280.5 359.77 1280.5 354.95 1232.67 359.77 1280.5 359.77"/><polygon class="cls-2" points="934.38 359.77 1045.66 359.77 917.3 325.26 934.38 359.77"/><polygon class="cls-3" points="917.76 359.77 934.38 359.77 917.3 325.26 917.76 359.77"/><polygon class="cls-4" points="881.88 359.77 917.76 359.77 917.3 325.26 881.88 359.77"/><polygon class="cls-5" points="724.56 359.77 881.88 359.77 917.3 325.26 724.56 359.77"/><polygon class="cls-6" points="523.02 359.77 531.54 359.77 516.35 355.19 523.02 359.77"/><polygon class="cls-7" points="515.57 359.77 523.02 359.77 516.35 355.19 515.57 359.77"/><polygon class="cls-8" points="512.3 359.77 515.57 359.77 516.35 355.19 512.3 359.77"/><polygon class="cls-9" points="366.74 316.72 384.74 359.77 512.3 359.77 516.35 355.19 366.74 316.72"/><polygon class="cls-10" points="251.49 359.77 384.74 359.77 366.74 316.72 251.49 359.77"/><polygon class="cls-11" points="133.14 359.77 184.6 359.77 135.9 341.5 133.14 359.77"/><polygon class="cls-12" points="96.2 359.77 133.14 359.77 135.9 341.5 96.2 359.77"/><polygon class="cls-13" points="0.5 354.57 0.5 359.77 1.31 359.77 0.5 354.57"/><polygon class="cls-14" points="1280.5 347.87 1280.5 194.82 1156.69 217.54 1280.5 347.87"/><polygon class="cls-15" points="1175.6 359.77 1232.67 359.77 1280.5 354.95 1280.5 347.87 1156.69 217.54 1175.6 359.77"/><polygon class="cls-16" points="1080.72 359.77 1175.6 359.77 1156.69 217.54 1080.72 359.77"/><polygon class="cls-17" points="1025.88 259.44 1072.49 359.77 1080.72 359.77 1156.69 217.54 1025.88 259.44"/><polygon class="cls-18" points="917.3 325.26 1045.66 359.77 1072.49 359.77 1025.88 259.44 917.3 325.26"/><polygon class="cls-19" points="917.3 325.26 1025.88 259.44 877.12 262 917.3 325.26"/><polygon class="cls-20" points="877.12 262 722.38 359.77 724.56 359.77 917.3 325.26 877.12 262"/><polygon class="cls-21" points="795.05 212.42 721.79 359.77 722.38 359.77 877.12 262 795.05 212.42"/><polygon class="cls-22" points="614.65 209.85 721.13 359.77 721.79 359.77 795.05 212.42 614.65 209.85"/><polygon class="cls-23" points="629.57 359.77 721.13 359.77 614.65 209.85 629.57 359.77"/><polygon class="cls-24" points="516.35 355.19 531.54 359.77 629.57 359.77 614.65 209.85 516.35 355.19"/><polygon class="cls-25" points="516.35 355.19 614.65 209.85 524.9 179.08 516.35 355.19"/><polygon class="cls-26" points="412.9 254.31 516.35 355.19 524.9 179.08 412.9 254.31"/><polygon class="cls-27" points="366.74 316.72 516.35 355.19 412.9 254.31 366.74 316.72"/><polygon class="cls-28" points="225.67 253.46 366.74 316.72 412.9 254.31 225.67 253.46"/><polygon class="cls-29" points="225.67 253.46 218.79 359.77 251.49 359.77 366.74 316.72 225.67 253.46"/><polygon class="cls-30" points="135.9 341.5 184.6 359.77 218.79 359.77 225.67 253.46 135.9 341.5"/><polygon class="cls-31" points="155.56 232.08 135.9 341.5 225.67 253.46 155.56 232.08"/><polygon class="cls-32" points="155.56 232.08 0.5 186.28 0.5 194.16 135.9 341.5 155.56 232.08"/><polygon class="cls-33" points="96.2 359.77 135.9 341.5 0.5 194.16 0.5 309.52 4.46 359.77 96.2 359.77"/><polygon class="cls-34" points="4.46 359.77 0.5 309.52 0.5 354.57 1.31 359.77 4.46 359.77"/><polygon class="cls-35" points="1280.5 144.47 1280.5 101.19 1207.13 88.45 1280.5 144.47"/><polygon class="cls-36" points="1156.69 217.54 1280.5 194.82 1280.5 144.47 1207.13 88.45 1156.69 217.54"/><polygon class="cls-37" points="1207.13 88.45 1062.64 89.31 1156.69 217.54 1207.13 88.45"/><polygon class="cls-38" points="1156.69 217.54 1062.64 89.31 1025.88 259.44 1156.69 217.54"/><polygon class="cls-39" points="1025.88 259.44 1062.64 89.31 890.8 63.66 1025.88 259.44"/><polygon class="cls-40" points="877.12 262 1025.88 259.44 890.8 63.66 877.12 262"/><polygon class="cls-41" points="795.05 212.42 877.12 262 890.8 63.66 795.05 212.42"/><polygon class="cls-42" points="890.8 63.66 742.89 52.54 795.05 212.42 890.8 63.66"/><polygon class="cls-43" points="795.05 212.42 742.89 52.54 694.16 92.73 795.05 212.42"/><polygon class="cls-44" points="614.65 209.85 795.05 212.42 694.16 92.73 614.65 209.85"/><polygon class="cls-45" points="524.04 77.33 614.65 209.85 694.16 92.73 524.04 77.33"/><polygon class="cls-46" points="524.9 179.08 614.65 209.85 524.04 77.33 524.9 179.08"/><polygon class="cls-47" points="524.04 77.33 379.56 65.36 524.9 179.08 524.04 77.33"/><polygon class="cls-48" points="524.9 179.08 379.56 65.36 412.9 254.31 524.9 179.08"/><polygon class="cls-49" points="412.9 254.31 379.56 65.36 289.8 126.07 412.9 254.31"/><polygon class="cls-50" points="289.8 126.07 225.67 253.46 412.9 254.31 289.8 126.07"/><polygon class="cls-51" points="289.8 126.07 152.15 112.39 225.67 253.46 289.8 126.07"/><polygon class="cls-52" points="152.15 112.39 155.56 232.08 225.67 253.46 152.15 112.39"/><polygon class="cls-53" points="152.15 112.39 0.5 178.98 0.5 186.28 155.56 232.08 152.15 112.39"/><polygon class="cls-54" points="0.5 68.6 0.5 178.98 152.15 112.39 0.5 68.6"/><polygon class="cls-55" points="1280.5 101.19 1280.5 -0.23 1260.62 -0.23 1207.13 88.45 1280.5 101.19"/><polygon class="cls-56" points="1207.13 88.45 1260.62 -0.23 1189.06 -0.23 1137.88 11.5 1207.13 88.45"/><polygon class="cls-57" points="1137.88 11.5 1062.64 89.31 1207.13 88.45 1137.88 11.5"/><polygon class="cls-58" points="1137.88 11.5 1116.67 -0.23 1023.71 -0.23 1062.64 89.31 1137.88 11.5"/><polygon class="cls-59" points="1062.64 89.31 1023.71 -0.23 905.68 -0.23 895.93 7.23 1062.64 89.31"/><polygon class="cls-60" points="1062.64 89.31 895.93 7.23 890.8 63.66 1062.64 89.31"/><polygon class="cls-61" points="895.93 7.23 742.89 52.54 890.8 63.66 895.93 7.23"/><polygon class="cls-62" points="895.93 7.23 886.66 -0.23 767.08 -0.23 742.89 52.54 895.93 7.23"/><polygon class="cls-63" points="742.89 52.54 767.08 -0.23 680.75 -0.23 647.99 19.2 742.89 52.54"/><polygon class="cls-64" points="742.89 52.54 647.99 19.2 694.16 92.73 742.89 52.54"/><polygon class="cls-65" points="694.16 92.73 647.99 19.2 524.04 77.33 694.16 92.73"/><polygon class="cls-66" points="647.99 19.2 488.99 7.23 524.04 77.33 647.99 19.2"/><polygon class="cls-67" points="488.99 7.23 379.56 65.36 524.04 77.33 488.99 7.23"/><polygon class="cls-68" points="488.99 7.23 477.87 -0.23 370.3 -0.23 379.56 65.36 488.99 7.23"/><polygon class="cls-69" points="379.56 65.36 370.3 -0.23 294.31 -0.23 288.94 6.38 379.56 65.36"/><polygon class="cls-70" points="379.56 65.36 288.94 6.38 289.8 126.07 379.56 65.36"/><polygon class="cls-71" points="288.94 6.38 152.15 112.39 289.8 126.07 288.94 6.38"/><polygon class="cls-72" points="288.94 6.38 265.25 -0.23 173.97 -0.23 152.15 112.39 288.94 6.38"/><polygon class="cls-73" points="173.97 -0.23 57.98 -0.23 152.15 112.39 173.97 -0.23"/><polygon class="cls-74" points="57.98 -0.23 0.5 -0.23 0.5 68.6 152.15 112.39 57.98 -0.23"/><polygon class="cls-75" points="1189.06 -0.23 1116.67 -0.23 1137.88 11.5 1189.06 -0.23"/><polygon class="cls-76" points="905.68 -0.23 886.66 -0.23 895.93 7.23 905.68 -0.23"/><polygon class="cls-77" points="518.77 -0.23 477.87 -0.23 488.99 7.23 518.77 -0.23"/><polygon class="cls-78" points="647.99 19.2 680.75 -0.23 518.77 -0.23 488.99 7.23 647.99 19.2"/><polygon class="cls-79" points="294.31 -0.23 265.25 -0.23 288.94 6.38 294.31 -0.23"/><rect class="cls-80" x="0.5" y="-0.23" width="1280" height="360"/></svg>