<svg id="Layer_1" data-name="Layer 1" xmlns="http://www.w3.org/2000/svg" viewBox="0 0 1280 800"><defs><style>.cls-1{fill:none;}.cls-2{fill:#fcf0e9;}.cls-3{fill:#f8dfd2;}.cls-4{fill:#f8e0d6;}.cls-5{fill:#f6d8ca;}.cls-6{fill:#f5cec1;}.cls-7{fill:#f3cbbb;}.cls-8{fill:#f1c8ba;}.cls-9{fill:#efc1b5;}.cls-10{fill:#eab5ab;}.cls-11{fill:#e6ada4;}.cls-12{fill:#e8aa9c;}.cls-13{fill:#e39f92;}.cls-14{fill:#e2a29a;}.cls-15{fill:#df9a94;}.cls-16{fill:#db908d;}.cls-17{fill:#dc8d84;}.cls-18{fill:#d6807b;}.cls-19{fill:#d58683;}.cls-20{fill:#d28583;}.cls-21{fill:#cf827d;}.cls-22{fill:#ce8483;}.cls-23{fill:#cc8380;}.cls-24{fill:#c97b73;}.cls-25{fill:#f6d5c3;}.cls-26{fill:#f5d2c0;}.cls-27{fill:#f2c0a9;}.cls-28{fill:#f1b69d;}.cls-29{fill:#efb7a2;}.cls-30{fill:#eca890;}.cls-31{fill:#e8a28e;}.cls-32{fill:#e4917a;}.cls-33{fill:#e18975;}.cls-34{fill:#e08f80;}.cls-35{fill:#db8477;}.cls-36{fill:#da7a69;}.cls-37{fill:#d47468;}.cls-38{fill:#d26959;}.cls-39{fill:#ce6a5b;}.cls-40{fill:#cd776c;}.cls-41{fill:#cc7569;}.cls-42{fill:#c96b5c;}.cls-43{fill:#f3c5b1;}.cls-44{fill:#f1b6a2;}.cls-45{fill:#f1b39c;}.cls-46{fill:#ec9a87;}.cls-47{fill:#ec9580;}.cls-48{fill:#eda388;}.cls-49{fill:#ed9e80;}.cls-50{fill:#e98e74;}.cls-51{fill:#e5866f;}.cls-52{fill:#e17962;}.cls-53{fill:#dc6b59;}.cls-54{fill:#db735d;}.cls-55{fill:#d96d5a;}.cls-56{fill:#d65f4e;}.cls-57{fill:#d35747;}.cls-58{fill:#d15c49;}.cls-59{fill:#ce5241;}.cls-60{fill:#cb5a48;}.cls-61{fill:#c85543;}.cls-62{fill:#c75f4c;}.cls-63{fill:#eea094;}.cls-64{fill:#ec9186;}.cls-65{fill:#ec8d80;}.cls-66{fill:#e97e70;}.cls-67{fill:#e98270;}.cls-68{fill:#e7715e;}.cls-69{fill:#e76c58;}.cls-70{fill:#e67a62;}.cls-71{fill:#e16e59;}.cls-72{fill:#de5b4b;}.cls-73{fill:#da5545;}.cls-74{fill:#da5a4a;}.cls-75{fill:#d65344;}.cls-76{fill:#d44739;}.cls-77{fill:#d14839;}.cls-78{fill:#d03e2f;}.cls-79{fill:#cc4233;}.cls-80{fill:#c83629;}.cls-81{fill:#c5382b;}.cls-82{fill:#c54436;}.cls-83{fill:#c22f22;}.cls-84{fill:#ea7e77;}.cls-85{fill:#e8776b;}.cls-86{fill:#e77064;}.cls-87{fill:#e76c5e;}.cls-88{fill:#e66354;}.cls-89{fill:#e6604e;}.cls-90{fill:#e45844;}.cls-91{fill:#e25342;}.cls-92{fill:#df4f3e;}.cls-93{fill:#df4938;}.cls-94{fill:#da4331;}.cls-95{fill:#d84333;}.cls-96{fill:#d53e2f;}.cls-97{fill:#d23627;}.cls-98{fill:#d03324;}.cls-99{fill:#cc3122;}.cls-100{fill:#cb3122;}.cls-101{fill:#c83121;}.cls-102{fill:#c73021;}.cls-103{fill:#c63021;}.cls-104{fill:#c32f1f;}.cls-105{fill:#e97a6f;}.cls-106{fill:#e8756a;}.cls-107{fill:#e76f63;}.cls-108{fill:#e76c5d;}.cls-109{fill:#e76555;}.cls-110{fill:#e45845;}.cls-111{fill:#e35543;}.cls-112{fill:#e04f3e;}.cls-113{fill:#df4b39;}.cls-114{fill:#db4333;}.cls-115{fill:#d93e2f;}.cls-116{fill:#d43a29;}.cls-117{fill:#ce3222;}.cls-118{fill:#c63020;}.cls-119{fill:#d23525;}.cls-120{fill:#d53b2c;}.cls-121{fill:#d33523;opacity:0.3;}</style></defs><title>bg-red</title><polygon class="cls-1" points="1280 0.58 1280 0 1279.86 0 1280 0.58"/><polygon class="cls-2" points="0 0 0 69.83 48.52 0 0 0"/><polygon class="cls-3" points="69.28 0 48.52 0 0 69.83 0 100.17 173.61 147.6 69.28 0"/><polygon class="cls-4" points="185.79 0 69.28 0 173.61 147.6 185.79 0"/><polygon class="cls-5" points="296.82 12.26 273.7 0 185.79 0 173.61 147.6 296.82 12.26"/><polygon class="cls-6" points="320.1 0 273.7 0 296.82 12.26 320.1 0"/><polygon class="cls-7" points="296.82 12.26 173.61 147.6 359.35 63.59 296.82 12.26"/><polygon class="cls-8" points="359.35 63.59 404.4 0 320.1 0 296.82 12.26 359.35 63.59"/><polygon class="cls-9" points="484.42 88.8 467.8 0 404.4 0 359.35 63.59 484.42 88.8"/><polygon class="cls-10" points="644.02 10.39 619.76 0 467.8 0 484.42 88.8 644.02 10.39"/><polygon class="cls-11" points="657.55 0 619.76 0 644.02 10.39 657.55 0"/><polygon class="cls-12" points="644.02 10.39 484.42 88.8 602.02 125.2 644.02 10.39"/><polygon class="cls-13" points="762.56 101.86 644.02 10.39 602.02 125.2 762.56 101.86"/><polygon class="cls-14" points="762.56 101.86 711.26 0 657.55 0 644.02 10.39 762.56 101.86"/><polygon class="cls-15" points="860.56 12.26 812.6 0 711.26 0 762.56 101.86 860.56 12.26"/><polygon class="cls-16" points="880.35 0 812.6 0 860.56 12.26 880.35 0"/><polygon class="cls-17" points="860.56 12.26 762.56 101.86 830.69 124.26 860.56 12.26"/><polygon class="cls-18" points="1064.96 105.6 860.56 12.26 830.69 124.26 1064.96 105.6"/><polygon class="cls-19" points="1064.96 105.6 999.12 0 880.35 0 860.56 12.26 1064.96 105.6"/><polygon class="cls-20" points="1098.97 0 999.12 0 1064.96 105.6 1098.97 0"/><polygon class="cls-21" points="1188.16 62.66 1106.36 0 1098.97 0 1064.96 105.6 1188.16 62.66"/><polygon class="cls-22" points="1223.72 0 1106.36 0 1188.16 62.66 1223.72 0"/><polygon class="cls-23" points="1240.44 138.26 1255.38 0 1223.72 0 1188.16 62.66 1240.44 138.26"/><polygon class="cls-24" points="1255.38 0 1240.44 138.26 1280 175.91 1280 0.58 1279.86 0 1255.38 0"/><polygon class="cls-25" points="0 160.66 0 220.37 14.94 215.73 0 160.66"/><polygon class="cls-26" points="173.61 147.6 0 100.17 0 160.66 14.94 215.73 173.61 147.6"/><polygon class="cls-27" points="173.61 147.6 14.94 215.73 170.81 300.67 173.61 147.6"/><polygon class="cls-28" points="322.02 215.73 173.61 147.6 170.81 300.67 322.02 215.73"/><polygon class="cls-27" points="359.35 63.59 173.61 147.6 322.02 215.73 359.35 63.59"/><polygon class="cls-29" points="484.42 88.8 359.35 63.59 322.02 215.73 484.42 88.8"/><polygon class="cls-30" points="441.48 273.6 484.42 88.8 322.02 215.73 441.48 273.6"/><polygon class="cls-31" points="602.02 125.2 484.42 88.8 441.48 273.6 602.02 125.2"/><polygon class="cls-32" points="602.02 125.2 441.48 273.6 619.75 299.73 602.02 125.2"/><polygon class="cls-33" points="717.75 233.47 602.02 125.2 619.75 299.73 717.75 233.47"/><polygon class="cls-34" points="717.75 233.47 762.56 101.86 602.02 125.2 717.75 233.47"/><polygon class="cls-35" points="830.69 124.26 762.56 101.86 717.75 233.47 830.69 124.26"/><polygon class="cls-36" points="830.69 124.26 717.75 233.47 879.23 243.73 830.69 124.26"/><polygon class="cls-37" points="879.23 243.73 1064.96 105.6 830.69 124.26 879.23 243.73"/><polygon class="cls-38" points="1034.16 274.53 1064.96 105.6 879.23 243.73 1034.16 274.53"/><polygon class="cls-39" points="1034.16 274.53 1180.7 216.67 1064.96 105.6 1034.16 274.53"/><polygon class="cls-40" points="1064.96 105.6 1180.7 216.67 1188.16 62.66 1064.96 105.6"/><polygon class="cls-41" points="1180.7 216.67 1240.44 138.26 1188.16 62.66 1180.7 216.67"/><polygon class="cls-42" points="1180.7 216.67 1280 224.99 1280 175.91 1240.44 138.26 1180.7 216.67"/><polygon class="cls-43" points="0 220.37 0 234.55 14.94 215.73 0 220.37"/><polygon class="cls-44" points="14.94 215.73 0 234.55 0 405.51 7.48 408 14.94 215.73"/><polygon class="cls-45" points="14.94 215.73 7.48 408 170.81 300.67 14.94 215.73"/><polygon class="cls-46" points="170.81 300.67 7.48 408 173.61 437.87 170.81 300.67"/><polygon class="cls-47" points="170.81 300.67 173.61 437.87 306.15 356.67 170.81 300.67"/><polygon class="cls-48" points="322.02 215.73 170.81 300.67 306.15 356.67 322.02 215.73"/><polygon class="cls-49" points="441.48 273.6 322.02 215.73 306.15 356.67 441.48 273.6"/><polygon class="cls-50" points="471.35 338.93 441.48 273.6 306.15 356.67 471.35 338.93"/><polygon class="cls-51" points="619.75 299.73 441.48 273.6 471.35 338.93 619.75 299.73"/><polygon class="cls-52" points="471.35 338.93 607.62 374.4 619.75 299.73 471.35 338.93"/><polygon class="cls-53" points="619.75 299.73 607.62 374.4 774.69 353.87 619.75 299.73"/><polygon class="cls-54" points="774.69 353.87 717.75 233.47 619.75 299.73 774.69 353.87"/><polygon class="cls-55" points="879.23 243.73 717.75 233.47 774.69 353.87 879.23 243.73"/><polygon class="cls-56" points="847.49 373.47 879.23 243.73 774.69 353.87 847.49 373.47"/><polygon class="cls-57" points="847.49 373.47 1018.3 336.13 879.23 243.73 847.49 373.47"/><polygon class="cls-58" points="1018.3 336.13 1034.16 274.53 879.23 243.73 1018.3 336.13"/><polygon class="cls-59" points="1018.3 336.13 1189.1 378.14 1034.16 274.53 1018.3 336.13"/><polygon class="cls-60" points="1189.1 378.14 1180.7 216.67 1034.16 274.53 1189.1 378.14"/><polygon class="cls-61" points="1189.1 378.14 1280 358.01 1280 311.3 1180.7 216.67 1189.1 378.14"/><polygon class="cls-62" points="1280 311.3 1280 224.99 1180.7 216.67 1280 311.3"/><polygon class="cls-63" points="0 405.51 0 412.97 7.48 408 0 405.51"/><polygon class="cls-64" points="7.48 408 0 412.97 0 523.15 7.48 523.73 7.48 408"/><polygon class="cls-65" points="7.48 408 7.48 523.73 173.61 437.87 7.48 408"/><polygon class="cls-66" points="173.61 437.87 7.48 523.73 191.35 530.27 173.61 437.87"/><polygon class="cls-67" points="173.61 437.87 191.35 530.27 306.15 356.67 173.61 437.87"/><polygon class="cls-68" points="191.35 530.27 370.55 582.53 306.15 356.67 191.35 530.27"/><polygon class="cls-69" points="370.55 582.53 492.82 496.67 306.15 356.67 370.55 582.53"/><polygon class="cls-70" points="306.15 356.67 492.82 496.67 471.35 338.93 306.15 356.67"/><polygon class="cls-71" points="471.35 338.93 492.82 496.67 607.62 374.4 471.35 338.93"/><polygon class="cls-72" points="492.82 496.67 625.36 511.6 607.62 374.4 492.82 496.67"/><polygon class="cls-73" points="607.62 374.4 625.36 511.6 701.89 489.2 607.62 374.4"/><polygon class="cls-74" points="607.62 374.4 701.89 489.2 774.69 353.87 607.62 374.4"/><polygon class="cls-75" points="701.89 489.2 847.49 373.47 774.69 353.87 701.89 489.2"/><polygon class="cls-76" points="701.89 489.2 872.69 494.8 847.49 373.47 701.89 489.2"/><polygon class="cls-77" points="872.69 494.8 1018.3 336.13 847.49 373.47 872.69 494.8"/><polygon class="cls-78" points="1032.3 534.93 1018.3 336.13 872.69 494.8 1032.3 534.93"/><polygon class="cls-79" points="1032.3 534.93 1189.1 378.14 1018.3 336.13 1032.3 534.93"/><polygon class="cls-80" points="1207.77 557.34 1189.1 378.14 1032.3 534.93 1207.77 557.34"/><polygon class="cls-81" points="1267.5 476.13 1189.1 378.14 1207.77 557.34 1267.5 476.13"/><polygon class="cls-82" points="1267.5 476.13 1280 445.78 1280 358.01 1189.1 378.14 1267.5 476.13"/><polygon class="cls-83" points="1280 581.6 1280 445.78 1267.5 476.13 1280 581.6"/><polygon class="cls-84" points="0 523.15 0 539.7 7.48 523.73 0 523.15"/><polygon class="cls-85" points="7.48 523.73 0 539.7 0 662.52 77.48 651.6 7.48 523.73"/><polygon class="cls-86" points="7.48 523.73 77.48 651.6 191.35 530.27 7.48 523.73"/><polygon class="cls-87" points="77.48 651.6 140.94 646 191.35 530.27 77.48 651.6"/><polygon class="cls-88" points="191.35 530.27 140.94 646 370.55 582.53 191.35 530.27"/><polygon class="cls-89" points="140.94 646 352.82 715.08 370.55 582.53 140.94 646"/><polygon class="cls-90" points="352.82 715.08 448.95 656.26 370.55 582.53 352.82 715.08"/><polygon class="cls-91" points="370.55 582.53 448.95 656.26 492.82 496.67 370.55 582.53"/><polygon class="cls-92" points="492.82 496.67 448.95 656.26 625.36 511.6 492.82 496.67"/><polygon class="cls-93" points="448.95 656.26 567.49 717.88 625.36 511.6 448.95 656.26"/><polygon class="cls-94" points="625.36 511.6 567.49 717.88 755.09 642.27 625.36 511.6"/><polygon class="cls-95" points="625.36 511.6 755.09 642.27 701.89 489.2 625.36 511.6"/><polygon class="cls-96" points="755.09 642.27 872.69 494.8 701.89 489.2 755.09 642.27"/><polygon class="cls-97" points="755.09 642.27 924.96 702 872.69 494.8 755.09 642.27"/><polygon class="cls-98" points="872.69 494.8 924.96 702 1032.3 534.93 872.69 494.8"/><polygon class="cls-99" points="924.96 702 1068.69 674.94 1032.3 534.93 924.96 702"/><polygon class="cls-100" points="1068.69 674.94 1118.17 664.67 1032.3 534.93 1068.69 674.94"/><polygon class="cls-101" points="1032.3 534.93 1118.17 664.67 1207.77 557.34 1032.3 534.93"/><polygon class="cls-102" points="1118.17 664.67 1240.44 710.41 1207.77 557.34 1118.17 664.67"/><polygon class="cls-103" points="1240.44 710.41 1267.5 476.13 1207.77 557.34 1240.44 710.41"/><polygon class="cls-104" points="1240.44 710.41 1280 789.54 1280 581.6 1267.5 476.13 1240.44 710.41"/><polygon class="cls-105" points="0 800 30.79 800 0 757.08 0 800"/><polygon class="cls-106" points="0 662.52 0 757.08 30.79 800 37.25 800 77.48 651.6 0 662.52"/><polygon class="cls-107" points="37.25 800 153.2 800 77.48 651.6 37.25 800"/><polygon class="cls-108" points="77.48 651.6 153.2 800 164.81 800 140.94 646 77.48 651.6"/><polygon class="cls-109" points="140.94 646 164.81 800 220.71 800 352.82 715.08 140.94 646"/><polygon class="cls-89" points="220.71 800 333.94 800 352.82 715.08 220.71 800"/><polygon class="cls-110" points="333.94 800 428.61 800 352.82 715.08 333.94 800"/><polygon class="cls-111" points="352.82 715.08 428.61 800 430.52 800 448.95 656.26 352.82 715.08"/><polygon class="cls-112" points="448.95 656.26 430.52 800 433.34 800 567.49 717.88 448.95 656.26"/><polygon class="cls-113" points="433.34 800 587.81 800 567.49 717.88 433.34 800"/><polygon class="cls-114" points="567.49 717.88 587.81 800 624.92 800 729.89 774.81 567.49 717.88"/><polygon class="cls-115" points="567.49 717.88 729.89 774.81 755.09 642.27 567.49 717.88"/><polygon class="cls-116" points="729.89 774.81 924.96 702 755.09 642.27 729.89 774.81"/><polygon class="cls-97" points="910.02 782.28 924.96 702 729.89 774.81 910.02 782.28"/><polygon class="cls-117" points="910.02 782.28 996.55 800 1047.44 800 924.96 702 910.02 782.28"/><polygon class="cls-99" points="924.96 702 1047.44 800 1065.34 800 1068.69 674.94 924.96 702"/><polygon class="cls-100" points="1068.69 674.94 1065.34 800 1069.95 800 1118.17 664.67 1068.69 674.94"/><polygon class="cls-100" points="1069.95 800 1133.67 800 1118.17 664.67 1069.95 800"/><polygon class="cls-102" points="1118.17 664.67 1133.67 800 1172.14 800 1240.44 710.41 1118.17 664.67"/><polygon class="cls-118" points="1172.14 800 1280 800 1280 789.54 1240.44 710.41 1172.14 800"/><polygon class="cls-119" points="692.9 800 975.82 800 910.02 782.28 692.9 800"/><polygon class="cls-120" points="729.89 774.81 624.92 800 692.9 800 910.02 782.28 729.89 774.81"/><polygon class="cls-100" points="975.82 800 996.55 800 910.02 782.28 975.82 800"/><rect class="cls-121" width="1280" height="800"/></svg>