<svg id="Layer_1" data-name="Layer 1" xmlns="http://www.w3.org/2000/svg" viewBox="0 0 100 100"><defs><style>.cls-1{fill:#fff;}</style></defs><title>brush</title><path class="cls-1" d="M13.82,67.82C6.25,75.26,12.64,82.89,2.58,94.21c-4.54,5.11,18.69,3.55,30.2-7.76,4.88-4.8,3.5-11.79-1.73-16.94S18.7,63,13.82,67.82ZM97.7,3.3C93.82-.52,50.81,33.95,38,46.53a88.27,88.27,0,0,0-10.42,12.1c-.85,1.09.27,1.42.78,1.68A23.8,23.8,0,0,1,34.91,65a23.44,23.44,0,0,1,4.79,6.44c.26.5.6,1.6,1.71.77A88.79,88.79,0,0,0,53.72,62C66.52,49.4,101.58,7.12,97.7,3.3Z"/></svg>