<svg id="Layer_1" data-name="Layer 1" xmlns="http://www.w3.org/2000/svg" viewBox="0 0 100 100"><defs><style>.cls-1{fill:#fff;}</style></defs><title>camera</title><path class="cls-1" d="M50,40A15,15,0,1,0,65,55,15,15,0,0,0,50,40ZM90,25H78a4.45,4.45,0,0,1-3.95-2.85l-3.1-9.31A4.46,4.46,0,0,0,67,10H33a4.45,4.45,0,0,0-3.95,2.85l-3.1,9.31A4.46,4.46,0,0,1,22,25H10A10,10,0,0,0,0,35V80A10,10,0,0,0,10,90H90a10,10,0,0,0,10-10V35A10,10,0,0,0,90,25ZM50,80A25,25,0,1,1,75,55,25,25,0,0,1,50,80ZM86.5,42A3.5,3.5,0,1,1,90,38.5,3.5,3.5,0,0,1,86.5,42Z"/></svg>