<svg xmlns="http://www.w3.org/2000/svg" viewBox="0 0 32 38" enable-background="new 0 0 32 38"><style type="text/css">.st0{fill:#FFFFFF;}</style><path class="st0" d="M13.1 0h1.3v14.7h-3.8v-6.5l-3.1 3.3h-.4l-3.1-3.3v6.5h-3.8v-14.7h1.4l5.7 6.4 5.8-6.4zm-.4 13.3v-9.8h-.3l-5.1 5.4-5-5.4h-.3v9.7h.2v-9.4l5.1 5.4 5.2-5.4v9.4h.2zM17.4 7.3c0-9.8 14.5-9.8 14.5 0 0 9.9-14.5 9.9-14.5 0zm12.7 0c0-7.6-11-7.6-11 0 0 7.7 11 7.7 11 0zm-10.8 0c0 7.4 10.6 7.3 10.6 0 0-7.2-10.6-7.3-10.6 0zm8.9 0c0 5.1-7.1 5.1-7.1 0s7.1-5.1 7.1 0zM.2 24.8c0-9.7 14.3-9.7 14.3 0s-14.3 9.7-14.3 0zm12.6 0c0-7.5-10.8-7.5-10.8 0-.1 7.5 10.8 7.5 10.8 0zm-10.7 0c0 7.3 10.4 7.2 10.4 0 .1-7.1-10.4-7.3-10.4 0zm8.7 0c0 5.1-7 5.1-7 0 0-5 7-5 7 0zM23.7 32.1h-6.3v-14.5h6.3c10.9.1 10.9 14.5 0 14.5zm-4.3-1.6h4.2c8.3 0 8.3-11.4 0-11.4h-4.2v11.4zm4.2-11.1h-4v10.9h4c8.1 0 8.1-10.9 0-10.9zm-2 1.6h2c5.3 0 5.3 7.7 0 7.7h-2v-7.7zM2 34.1c.8 0 1.6.4 1.8 1.4h-.9c-.2-.3-.4-.5-.9-.5-.6 0-.9.4-.9 1s.4 1 .9 1c.4 0 .7-.2.8-.6h.9c0 1.1-.9 1.6-1.7 1.6-1 0-1.9-.6-1.9-1.9 0-1.3 1-2 1.9-2zM7.7 37.8v.1h-1l-.7-1.1h-.5v1.1h-1v-3.8h1.7c1.5 0 1.7 1.8.8 2.4l.7 1.3zm-1.5-2.8h-.7v.9h.7c.5 0 .6-.9 0-.9zM10.7 35h-1.4v.5h1.3v.9h-1.3v.7h1.4v.9h-2.4v-3.8h2.4v.8zM13.7 37.4h-1.5l-.2.5h-.9v-.1l1.7-3.7h.4l1.7 3.7v.1h-.9l-.3-.5zm-.7-1.8l-.4 1h.9l-.5-1zM14.8 35v-.9h2.8v.9h-.9v2.9h-1v-2.9h-.9zM19.9 37.1v.8h-1.9v-.8h.5v-2.1h-.5v-.8h1.8v.8h-.4v2.1h.5zM20.3 36c0-2.6 3.9-2.6 3.9 0-.1 2.7-3.9 2.7-3.9 0zm2.9 0c0-1.4-1.9-1.4-1.9 0s1.9 1.4 1.9 0zM25.9 36.1v1.8h-1v-3.8h.3l1.9 1.9v-1.8h1v3.8h-.3l-1.9-1.9zM30.9 36.8c0-.3-.3-.3-.7-.3-.8-.1-1.4-.3-1.4-1.2 0-1.6 2.9-1.6 2.9 0h-.9c0-.5-1-.5-1 0 0 .3.3.3.6.4.7.1 1.5.2 1.5 1.1 0 1.6-3.1 1.6-3 0h.9c-.1.4 1.1.4 1.1 0z"/></svg>