<svg xmlns="http://www.w3.org/2000/svg" viewBox="0 0 66 23" enable-background="new 0 0 66 23"><style type="text/css">.st0{fill:#FFFFFF;}</style><path class="st0" d="M13.2.5h1.4v15h-3.9v-6.6l-3.2 3.3h-.4l-3.2-3.3v6.7h-3.9v-15h1.4l5.9 6.4 5.9-6.5zm-.4 13.6v-9.9h-.3l-5.2 5.4-5.2-5.4h-.2v9.9h.2v-9.7l5.2 5.6 5.3-5.5v9.6h.2zm4.7-6c0-10.3 15.4-10.3 15.4 0-.1 10.4-15.4 10.4-15.4 0zm13.5 0c0-8-11.6-8-11.6 0s11.6 8 11.6 0zm-11.4 0c0 7.8 11.2 7.7 11.2 0s-11.2-7.8-11.2 0zm9.3 0c0 5.4-7.5 5.4-7.5 0s7.5-5.4 7.5 0zm5.9 0c0-10.3 15.4-10.3 15.4 0 0 10.4-15.4 10.4-15.4 0zm13.5 0c0-8-11.6-8-11.6 0s11.6 8 11.6 0zm-11.4 0c0 7.8 11.2 7.7 11.2 0s-11.2-7.8-11.2 0zm9.3 0c0 5.4-7.5 5.4-7.5 0s7.5-5.4 7.5 0zm12.5 7.5h-5.7v-15h5.6c9.8 0 9.8 14.9.1 15zm-3.8-1.7h3.7c7.4 0 7.4-11.8 0-11.8h-3.7v11.8zm3.7-11.5h-3.5v11.3h3.5c7.2 0 7.2-11.3 0-11.3zm-1.7 1.7h1.8c4.8 0 4.8 8 0 8h-1.8v-8zm-37.5 14.6c.8 0 1.7.4 1.8 1.5h-1c-.1-.4-.4-.6-.8-.6-.6 0-1 .4-1 1.1 0 .6.4 1.1 1 1.1.4 0 .8-.2.9-.6h1c-.1 1.1-1 1.5-1.8 1.5-1 0-2-.7-2-2-.1-1.4.9-2 1.9-2zm5.9 3.7v.1h-1.1l-.7-1.1h-.5v1.1h-1v-3.9h1.7c1.5 0 1.8 1.8.8 2.5l.8 1.3zm-1.6-2.8h-.7v1h.7c.6 0 .6-1 0-1zm4.6 0h-1.4v.5h1.3v.9h-1.3v.7h1.5v.9h-2.5v-3.9h2.4v.9zm3.1 2.5h-1.5l-.2.5h-1v-.1l1.7-3.8h.4l1.7 3.8v.1h-1l-.1-.5zm-.7-1.9l-.4 1h.9l-.5-1zm1.9-.6v-.9h2.9v.9h-.9v3h-1v-3h-1zm5.2 2.1v.9h-2v-.9h.5v-2.1h-.5v-.9h1.9v.9h-.5v2.1h.6zm.4-1c0-2.7 4-2.7 4 0 0 2.6-4 2.6-4 0zm2.9 0c0-1.4-1.9-1.4-1.9 0s1.9 1.4 1.9 0zm2.8 0v1.9h-1v-3.9h.4l2 1.9v-1.9h1v3.9h-.4l-2-1.9zm5.2.7c0-.3-.3-.3-.7-.3-.8-.1-1.4-.4-1.4-1.2 0-1.7 3-1.7 3 0h-.9c0-.5-1-.5-1.1 0 0 .3.3.4.6.4.8.1 1.5.2 1.5 1.2 0 1.6-3.2 1.7-3.1 0h1c-.1.4 1.1.4 1.1-.1z"/></svg>