<svg xmlns="http://www.w3.org/2000/svg" viewBox="0 0 1280 360"><defs><style>.cls-1{isolation:isolate;}.cls-2{fill:#cae6df;}.cls-3{fill:#b5ddd6;}.cls-4{fill:#bde1dd;}.cls-5{fill:#b1dbd3;}.cls-6{fill:#9fd2c3;}.cls-7{fill:#8ac8ab;}.cls-8{fill:#86c5a7;}.cls-9{fill:#81bf9d;}.cls-10{fill:#75b68e;}.cls-11{fill:#6cac7f;}.cls-12{fill:#619b6b;}.cls-13{fill:#61956c;}.cls-14{fill:#4e8056;}.cls-15{fill:#a8d1b5;}.cls-16{fill:#b2dac6;}.cls-17{fill:#acd8c4;}.cls-18{fill:#9fd1b8;}.cls-19{fill:#a2d3bf;}.cls-20{fill:#94cbb1;}.cls-21{fill:#93ccb1;}.cls-22{fill:#83c09f;}.cls-23{fill:#79b990;}.cls-24{fill:#80c19e;}.cls-25{fill:#79b992;}.cls-26{fill:#64a574;}.cls-27{fill:#60a16e;}.cls-28{fill:#66a675;}.cls-29{fill:#55945a;}.cls-30{fill:#59965d;}.cls-31{fill:#569157;}.cls-32{fill:#4c8446;}.cls-33{fill:#43793d;}.cls-34{fill:#4d804f;}.cls-35{fill:#37672f;}.cls-36{fill:#8fb789;}.cls-37{fill:#8ebc93;}.cls-38{fill:#83b284;}.cls-39{fill:#8abb96;}.cls-40{fill:#79ad80;}.cls-41{fill:#7eb690;}.cls-42{fill:#74ae82;}.cls-43{fill:#639c69;}.cls-44{fill:#5f9961;}.cls-45{fill:#62a270;}.cls-46{fill:#559153;}.cls-47{fill:#539154;}.cls-48{fill:#477f3c;}.cls-49{fill:#4c8746;}.cls-50{fill:#417e35;}.cls-51{fill:#488441;}.cls-52{fill:#3b7328;}.cls-53{fill:#3d7530;}.cls-54{fill:#376a26;}.cls-55{fill:#2b571a;}.cls-56{fill:#88a783;}.cls-57{fill:#809e80;}.cls-58{fill:#7ea27e;}.cls-59{fill:#749579;}.cls-60{fill:#6c9075;}.cls-61{fill:#6d9875;}.cls-62{fill:#61906a;}.cls-63{fill:#5b8466;}.cls-64{fill:#53805c;}.cls-65{fill:#55895a;}.cls-66{fill:#4f8451;}.cls-67{fill:#457845;}.cls-68{fill:#3f7238;}.cls-69{fill:#36622d;}.cls-70{fill:#2f5c25;}.cls-71{fill:#366825;}.cls-72{fill:#32641e;}.cls-73{fill:#2a5519;}.cls-74{fill:#244a15;}.cls-75{fill:#234915;}.cls-76{fill:#77917c;}.cls-77{fill:#61826d;}.cls-78{fill:#3d6741;}.cls-79{fill:#4a7852;}.cls-80{fill:#274e1a;}.cls-81{fill:#6ffaff;mix-blend-mode:hue;}</style></defs><title>turg-bg</title><g class="cls-1"><g id="Layer_3" data-name="Layer 3"><polygon class="cls-2" points="1280 360.27 1280 355 1227.71 360.27 1280 360.27"/><polygon class="cls-3" points="934.63 360.27 1047.52 360.27 917.3 325.26 934.63 360.27"/><polygon class="cls-4" points="917.76 360.27 934.63 360.27 917.3 325.26 917.76 360.27"/><polygon class="cls-5" points="881.37 360.27 917.76 360.27 917.3 325.26 881.37 360.27"/><polygon class="cls-6" points="721.77 360.27 881.37 360.27 917.3 325.26 721.77 360.27"/><polygon class="cls-7" points="523.75 360.27 533.2 360.27 516.35 355.19 523.75 360.27"/><polygon class="cls-8" points="515.49 360.27 523.75 360.27 516.35 355.19 515.49 360.27"/><polygon class="cls-9" points="511.86 360.27 515.49 360.27 516.35 355.19 511.86 360.27"/><polygon class="cls-10" points="366.74 316.72 384.95 360.27 511.86 360.27 516.35 355.19 366.74 316.72"/><polygon class="cls-11" points="250.15 360.27 384.95 360.27 366.74 316.72 250.15 360.27"/><polygon class="cls-12" points="133.07 360.27 185.94 360.27 135.9 341.5 133.07 360.27"/><polygon class="cls-13" points="95.11 360.27 133.07 360.27 135.9 341.5 95.11 360.27"/><polygon class="cls-14" points="0 351.36 0 360.27 1.39 360.27 0 351.36"/><polygon class="cls-15" points="1280 347.34 1280 194.91 1156.69 217.54 1280 347.34"/><polygon class="cls-16" points="1175.66 360.27 1227.71 360.27 1280 355 1280 347.34 1156.69 217.54 1175.66 360.27"/><polygon class="cls-17" points="1080.45 360.27 1175.66 360.27 1156.69 217.54 1080.45 360.27"/><polygon class="cls-18" points="1025.88 259.44 1072.72 360.27 1080.45 360.27 1156.69 217.54 1025.88 259.44"/><polygon class="cls-19" points="917.3 325.26 1047.52 360.27 1072.72 360.27 1025.88 259.44 917.3 325.26"/><polygon class="cls-20" points="917.3 325.26 1025.88 259.44 877.12 262 917.3 325.26"/><polygon class="cls-21" points="877.12 262 721.59 360.27 721.77 360.27 917.3 325.26 877.12 262"/><polygon class="cls-22" points="795.05 212.42 721.54 360.27 721.59 360.27 877.12 262 795.05 212.42"/><polygon class="cls-23" points="614.65 209.85 721.49 360.27 721.54 360.27 795.05 212.42 614.65 209.85"/><polygon class="cls-24" points="629.62 360.27 721.49 360.27 614.65 209.85 629.62 360.27"/><polygon class="cls-25" points="516.35 355.19 533.2 360.27 629.62 360.27 614.65 209.85 516.35 355.19"/><polygon class="cls-26" points="516.35 355.19 614.65 209.85 524.9 179.08 516.35 355.19"/><polygon class="cls-27" points="412.9 254.31 516.35 355.19 524.9 179.08 412.9 254.31"/><polygon class="cls-28" points="366.74 316.72 516.35 355.19 412.9 254.31 366.74 316.72"/><polygon class="cls-29" points="225.67 253.46 366.74 316.72 412.9 254.31 225.67 253.46"/><polygon class="cls-30" points="225.67 253.46 218.76 360.27 250.15 360.27 366.74 316.72 225.67 253.46"/><polygon class="cls-31" points="135.9 341.5 185.94 360.27 218.76 360.27 225.67 253.46 135.9 341.5"/><polygon class="cls-32" points="155.56 232.08 135.9 341.5 225.67 253.46 155.56 232.08"/><polygon class="cls-33" points="155.56 232.08 0 186.13 0 193.62 135.9 341.5 155.56 232.08"/><polygon class="cls-34" points="95.11 360.27 135.9 341.5 0 193.62 0 303.17 4.5 360.27 95.11 360.27"/><polygon class="cls-35" points="4.5 360.27 0 303.17 0 351.36 1.39 360.27 4.5 360.27"/><polygon class="cls-36" points="1280 144.09 1280 101.1 1207.13 88.45 1280 144.09"/><polygon class="cls-37" points="1156.69 217.54 1280 194.91 1280 144.09 1207.13 88.45 1156.69 217.54"/><polygon class="cls-38" points="1207.13 88.45 1062.64 89.31 1156.69 217.54 1207.13 88.45"/><polygon class="cls-39" points="1156.69 217.54 1062.64 89.31 1025.88 259.44 1156.69 217.54"/><polygon class="cls-40" points="1025.88 259.44 1062.64 89.31 890.8 63.66 1025.88 259.44"/><polygon class="cls-41" points="877.12 262 1025.88 259.44 890.8 63.66 877.12 262"/><polygon class="cls-42" points="795.05 212.42 877.12 262 890.8 63.66 795.05 212.42"/><polygon class="cls-43" points="890.8 63.66 742.89 52.54 795.05 212.42 890.8 63.66"/><polygon class="cls-44" points="795.05 212.42 742.89 52.54 694.16 92.73 795.05 212.42"/><polygon class="cls-45" points="614.65 209.85 795.05 212.42 694.16 92.73 614.65 209.85"/><polygon class="cls-46" points="524.04 77.33 614.65 209.85 694.16 92.73 524.04 77.33"/><polygon class="cls-47" points="524.9 179.08 614.65 209.85 524.04 77.33 524.9 179.08"/><polygon class="cls-48" points="524.04 77.33 379.56 65.36 524.9 179.08 524.04 77.33"/><polygon class="cls-49" points="524.9 179.08 379.56 65.36 412.9 254.31 524.9 179.08"/><polygon class="cls-50" points="412.9 254.31 379.56 65.36 289.8 126.07 412.9 254.31"/><polygon class="cls-51" points="289.8 126.07 225.67 253.46 412.9 254.31 289.8 126.07"/><polygon class="cls-52" points="289.8 126.07 152.15 112.39 225.67 253.46 289.8 126.07"/><polygon class="cls-53" points="152.15 112.39 155.56 232.08 225.67 253.46 152.15 112.39"/><polygon class="cls-54" points="152.15 112.39 0 179.2 0 186.13 155.56 232.08 152.15 112.39"/><polygon class="cls-55" points="0 68.45 0 179.2 152.15 112.39 0 68.45"/><polygon class="cls-56" points="1280 101.1 1280 -1.73 1261.52 -1.73 1207.13 88.45 1280 101.1"/><polygon class="cls-57" points="1207.13 88.45 1261.52 -1.73 1195.6 -1.73 1137.88 11.5 1207.13 88.45"/><polygon class="cls-58" points="1137.88 11.5 1062.64 89.31 1207.13 88.45 1137.88 11.5"/><polygon class="cls-59" points="1137.88 11.5 1113.96 -1.73 1023.06 -1.73 1062.64 89.31 1137.88 11.5"/><polygon class="cls-60" points="1062.64 89.31 1023.06 -1.73 907.64 -1.73 895.93 7.23 1062.64 89.31"/><polygon class="cls-61" points="1062.64 89.31 895.93 7.23 890.8 63.66 1062.64 89.31"/><polygon class="cls-62" points="895.93 7.23 742.89 52.54 890.8 63.66 895.93 7.23"/><polygon class="cls-63" points="895.93 7.23 884.79 -1.73 767.77 -1.73 742.89 52.54 895.93 7.23"/><polygon class="cls-64" points="742.89 52.54 767.77 -1.73 683.28 -1.73 647.99 19.2 742.89 52.54"/><polygon class="cls-65" points="742.89 52.54 647.99 19.2 694.16 92.73 742.89 52.54"/><polygon class="cls-66" points="694.16 92.73 647.99 19.2 524.04 77.33 694.16 92.73"/><polygon class="cls-67" points="647.99 19.2 488.99 7.23 524.04 77.33 647.99 19.2"/><polygon class="cls-68" points="488.99 7.23 379.56 65.36 524.04 77.33 488.99 7.23"/><polygon class="cls-69" points="488.99 7.23 475.63 -1.73 370.09 -1.73 379.56 65.36 488.99 7.23"/><polygon class="cls-70" points="379.56 65.36 370.09 -1.73 295.52 -1.73 288.94 6.38 379.56 65.36"/><polygon class="cls-71" points="379.56 65.36 288.94 6.38 289.8 126.07 379.56 65.36"/><polygon class="cls-72" points="288.94 6.38 152.15 112.39 289.8 126.07 288.94 6.38"/><polygon class="cls-73" points="288.94 6.38 259.88 -1.73 174.25 -1.73 152.15 112.39 288.94 6.38"/><polygon class="cls-74" points="174.25 -1.73 56.72 -1.73 152.15 112.39 174.25 -1.73"/><polygon class="cls-75" points="56.72 -1.73 0 -1.73 0 68.45 152.15 112.39 56.72 -1.73"/><polygon class="cls-76" points="1195.6 -1.73 1113.96 -1.73 1137.88 11.5 1195.6 -1.73"/><polygon class="cls-77" points="907.64 -1.73 884.79 -1.73 895.93 7.23 907.64 -1.73"/><polygon class="cls-78" points="524.75 -1.73 475.63 -1.73 488.99 7.23 524.75 -1.73"/><polygon class="cls-79" points="647.99 19.2 683.28 -1.73 524.75 -1.73 488.99 7.23 647.99 19.2"/><polygon class="cls-80" points="295.52 -1.73 259.88 -1.73 288.94 6.38 295.52 -1.73"/><rect class="cls-81" y="-1.73" width="1280" height="362"/></g></g></svg>