<svg id="Layer_1" data-name="Layer 1" xmlns="http://www.w3.org/2000/svg" viewBox="0 0 100 100"><defs><style>.cls-1{fill:#fff;}</style></defs><title>uiux</title><path class="cls-1" d="M27.58,71.12a31.12,31.12,0,0,1,.64-43.05,30.41,30.41,0,0,1,17.07-8.68L44.94,9A40.58,40.58,0,0,0,21,20.75a41.5,41.5,0,0,0-.62,57.65l-8.7,8.76,27.55,1.5-.08-29.16ZM60.81,11.33l.08,29.17L72.42,28.89a31.12,31.12,0,0,1-.64,43.06,30.4,30.4,0,0,1-17.07,8.68L55.06,91A40.58,40.58,0,0,0,79,79.25a41.5,41.5,0,0,0,.61-57.66l8.7-8.76Z"/></svg>